HIERARCHY
ROOT root
{
	OFFSET 0.000000 0.000000 0.000000
	CHANNELS 6 Xposition Yposition Zposition Zrotation Yrotation Xrotation
	JOINT lhip
	{
		OFFSET 0.058581 -0.082280 -0.017664
		CHANNELS 3 Zrotation Yrotation Xrotation
		JOINT lknee
		{
			OFFSET 0.043451 -0.386469 0.008037
			CHANNELS 3 Zrotation Yrotation Xrotation
			JOINT lankle
			{
				OFFSET -0.014790 -0.426874 -0.037428
				CHANNELS 3 Zrotation Yrotation Xrotation
				JOINT ltoe
				{
					OFFSET 0.041054 -0.060286 0.122042
					CHANNELS 3 Zrotation Yrotation Xrotation
					End Site
					{
						OFFSET 0.000000 0.000000 0.000000
					}
				}
			}
		}
	}
	JOINT rhip
	{
		OFFSET -0.060310 -0.090513 -0.013543
		CHANNELS 3 Zrotation Yrotation Xrotation
		JOINT rknee
		{
			OFFSET -0.043257 -0.383688 -0.004843
			CHANNELS 3 Zrotation Yrotation Xrotation
			JOINT rankle
			{
				OFFSET 0.019056 -0.420046 -0.034562
				CHANNELS 3 Zrotation Yrotation Xrotation
				JOINT rtoe
				{
					OFFSET -0.034840 -0.062106 0.130323
					CHANNELS 3 Zrotation Yrotation Xrotation
					End Site
					{
						OFFSET 0.000000 0.000000 0.000000
					}
				}
			}
		}
	}
	JOINT lowerback
	{
		OFFSET 0.004439 0.124404 -0.038385
		CHANNELS 3 Zrotation Yrotation Xrotation
		JOINT upperback
		{
			OFFSET 0.004488 0.137956 0.026820
			CHANNELS 3 Zrotation Yrotation Xrotation
			JOINT chest
			{
				OFFSET -0.002265 0.056032 0.002855
				CHANNELS 3 Zrotation Yrotation Xrotation
				JOINT lowerneck
				{
					OFFSET -0.013390 0.211636 -0.033468
					CHANNELS 3 Zrotation Yrotation Xrotation
					JOINT upperneck
					{
						OFFSET 0.010113 0.088937 0.050410
						CHANNELS 3 Zrotation Yrotation Xrotation
						End Site
						{
							OFFSET 0.000000 0.000000 0.000000
						}
					}
				}
				JOINT lclavicle
				{
					OFFSET 0.071702 0.114000 -0.018898
					CHANNELS 3 Zrotation Yrotation Xrotation
					JOINT lshoulder
					{
						OFFSET 0.122921 0.045205 -0.019046
						CHANNELS 3 Zrotation Yrotation Xrotation
						JOINT lelbow
						{
							OFFSET 0.255332 -0.015649 -0.022946
							CHANNELS 3 Zrotation Yrotation Xrotation
							JOINT lwrist
							{
								OFFSET 0.265709 0.012698 -0.007375
								CHANNELS 3 Zrotation Yrotation Xrotation
								End Site
								{
									OFFSET 0.000000 0.000000 0.000000
								}
							}
						}
					}
				}
				JOINT rclavicle
				{
					OFFSET -0.082954 0.112472 -0.023707
					CHANNELS 3 Zrotation Yrotation Xrotation
					JOINT rshoulder
					{
						OFFSET -0.113228 0.046853 -0.008472
						CHANNELS 3 Zrotation Yrotation Xrotation
						JOINT relbow
						{
							OFFSET -0.260127 -0.014369 -0.031269
							CHANNELS 3 Zrotation Yrotation Xrotation
							JOINT rwrist
							{
								OFFSET -0.269108 0.006794 -0.006027
								CHANNELS 3 Zrotation Yrotation Xrotation
								End Site
								{
									OFFSET 0.000000 0.000000 0.000000
								}
							}
						}
					}
				}
			}
		}
	}
}
MOTION
Frames: 13
Frame Time: 0.033333
1.747506 0.740649 0.987741 -88.355432 3.299879 80.179028 1.404909 1.048286 11.605541 -2.244999 -14.497511 3.458016 4.096180 7.105209 -17.933287 0.000000 -0.000000 0.000000 3.584107 -2.614919 8.920572 1.976517 -0.898320 9.097546 2.095732 -2.838873 -17.458958 0.000000 -0.000000 0.000000 -2.635495 1.752864 6.243413 1.781378 -3.947608 7.011316 1.217740 -1.569787 2.599182 2.137789 2.839712 11.771202 4.667589 -1.460242 0.083983 -23.512008 1.187785 2.259921 -65.247190 -8.744261 11.543613 14.536561 -38.585225 3.938556 -0.791757 1.990145 -16.306608 22.935773 0.898024 -0.141595 64.535463 5.945287 12.519449 -18.802732 34.787646 -1.944652 6.446439 -1.652297 -9.183785 
1.748858 0.741321 0.987393 -88.275117 3.656381 80.450328 1.873667 0.854700 10.915899 -2.411367 -14.134890 4.015213 3.817333 6.849943 -18.290112 0.000000 -0.000000 0.000000 4.027823 -2.281261 8.446740 1.938750 -1.244648 9.634829 1.793302 -2.444508 -16.514636 0.000000 -0.000000 0.000000 -2.108309 1.481561 6.224911 1.799818 -3.772071 6.392940 0.960008 -1.655236 3.040800 2.492387 2.888670 11.177685 4.027168 -1.766726 0.840146 -23.113707 1.365033 2.251198 -65.533740 -9.255771 12.093194 14.307869 -39.510776 5.147857 -0.839505 0.800492 -17.141524 22.891831 0.858314 -0.167095 64.528968 6.378713 13.094631 -18.208704 35.649462 -1.347264 5.404189 -0.199233 -11.710494 
1.750975 0.742636 0.986800 -88.030521 3.779010 80.871252 2.039277 0.498290 9.841982 -2.553814 -13.944572 4.914309 4.086563 6.792342 -18.613102 0.000000 -0.000000 0.000000 4.117073 -2.181220 7.853543 2.121187 -0.851606 10.153641 1.954193 -2.755420 -14.457057 0.000000 -0.000000 0.000000 -1.966035 1.357106 5.975599 1.922294 -3.777810 6.188095 0.831308 -1.679873 3.245340 2.488120 2.729830 10.690781 3.790686 -1.867775 1.453968 -22.978272 1.083256 2.231722 -65.619202 -10.107891 12.456626 13.357597 -38.299172 5.894194 -0.163403 -0.316154 -17.019032 22.865804 0.716470 -0.144146 64.515747 6.818107 13.290492 -17.849375 35.675334 -1.385691 5.231027 0.493750 -12.256795 
1.752899 0.743381 0.985541 -87.744971 4.003378 81.363135 2.279854 0.152078 8.713810 -2.720426 -13.572576 5.724583 4.204902 6.669238 -18.717952 0.000000 -0.000000 0.000000 4.405924 -2.075800 7.126882 2.120532 -0.988165 10.285119 1.951740 -2.998265 -14.278286 0.000000 -0.000000 0.000000 -1.647227 1.182126 5.664633 1.977219 -3.775098 6.062386 0.706910 -1.680487 3.370220 2.575707 2.605423 10.208815 3.570958 -1.997604 1.814731 -23.204954 1.285296 2.383951 -65.580497 -10.259137 12.485534 12.957382 -37.925271 6.255354 -0.814607 -0.818324 -16.797327 22.740185 0.542231 -0.036804 64.614679 6.953285 13.287205 -17.799229 35.175045 -1.220987 6.173498 0.973496 -12.355124 
1.753904 0.743723 0.985414 -87.529198 4.084601 81.493579 2.375198 -0.008522 8.310445 -2.805248 -13.632085 6.050401 4.196869 6.667048 -18.635777 0.000000 -0.000000 0.000000 4.533410 -2.184741 6.882986 2.101186 -1.005502 10.359704 1.880715 -3.137235 -14.251716 0.000000 -0.000000 0.000000 -1.557003 1.124282 5.797075 1.979225 -3.778865 5.799035 0.702617 -1.744829 3.396597 2.491870 2.482710 10.025104 3.564328 -1.976322 1.885134 -23.243517 1.347307 2.473725 -65.570846 -10.048879 12.356798 12.722723 -37.126779 6.324275 -0.718998 -0.633361 -16.710162 22.626770 0.460674 0.005448 64.742772 6.710711 13.247359 -17.424913 34.542324 -0.932236 6.555809 0.515778 -12.613263 
1.754293 0.744116 0.985177 -87.564372 4.032810 81.372670 2.312439 -0.005146 8.360368 -2.813943 -13.702655 6.142205 4.125663 6.862133 -18.665117 0.000000 -0.000000 0.000000 4.479963 -2.168223 7.024794 2.130096 -0.827657 10.272771 1.930151 -3.303551 -14.088479 0.000000 -0.000000 0.000000 -1.505453 1.080893 5.928346 1.893867 -3.756788 5.828848 0.695145 -1.729904 3.485088 2.521494 2.274645 9.696929 3.396308 -1.993856 2.170648 -23.587104 1.551212 2.477024 -65.508675 -9.747163 11.986902 12.739737 -35.107713 6.034678 -1.311689 -0.602623 -16.324238 22.824210 0.455220 0.146217 64.579743 6.572282 13.034357 -17.184548 32.757991 -0.740375 6.956361 0.582345 -12.020927 
1.754689 0.744434 0.985092 -87.557637 4.011283 81.272213 2.269006 -0.092814 8.375529 -2.854713 -13.899192 6.261449 4.159341 7.208860 -18.664403 0.000000 -0.000000 0.000000 4.493249 -2.114589 7.085574 2.162596 -0.688281 10.335718 1.844790 -3.600275 -14.144441 0.000000 -0.000000 0.000000 -1.422054 1.032822 6.194008 1.801617 -3.743000 5.657513 0.673349 -1.728771 3.523067 2.386996 2.086575 9.478254 3.357681 -1.907703 2.232481 -23.750424 1.604051 2.639601 -65.539533 -9.196944 11.508380 12.725396 -32.376804 5.774480 -1.598815 -0.414068 -16.092522 22.819094 0.357487 0.241691 64.661221 6.116300 12.783649 -16.808965 30.935013 -0.257375 7.473914 0.356312 -11.705142 
1.755454 0.744497 0.984897 -87.529583 3.970422 81.351507 2.189538 -0.106929 7.989650 -2.978847 -13.969076 6.747769 4.301136 7.354911 -18.615626 0.000000 -0.000000 0.000000 4.461531 -1.996208 6.914221 2.230696 -0.602803 10.387264 1.768670 -3.819415 -14.071119 0.000000 -0.000000 0.000000 -1.260057 0.946505 6.364736 1.747641 -3.772754 5.369888 0.617883 -1.729748 3.521816 2.363686 1.812607 9.386872 3.273453 -1.788319 2.293960 -24.215763 1.810694 2.728396 -65.328383 -8.682094 10.929583 12.633904 -28.770032 5.289357 -1.962332 -0.431089 -15.854333 22.973550 0.107901 0.246630 64.643944 5.855416 12.509422 -16.374033 28.197317 0.119585 7.631465 0.470672 -11.064327 
1.755564 0.744481 0.985155 -87.590869 3.887660 81.150146 2.061126 0.030854 8.221068 -2.903240 -14.227123 6.687109 4.195990 7.600302 -18.751007 0.000000 -0.000000 0.000000 4.416994 -2.019181 7.128538 2.247062 -0.271759 10.369526 1.771236 -4.059409 -14.139342 0.000000 -0.000000 0.000000 -1.141807 1.007557 6.692921 1.651266 -3.804181 5.171200 0.577664 -1.806185 3.604175 2.337388 1.684399 9.269907 3.281805 -1.713803 2.263192 -24.567830 1.790893 2.853270 -65.041655 -7.951187 10.147056 12.269802 -24.859242 5.126432 -0.777945 -0.108416 -14.182674 22.860078 -0.078123 0.347998 64.794999 4.889936 12.143954 -16.065257 26.522766 0.300987 6.248228 -0.684901 -10.534097 
1.755811 0.745135 0.984967 -87.740186 3.867485 81.081472 2.084773 0.233668 8.305117 -2.892757 -14.486059 6.595774 4.131389 7.914712 -18.727327 0.000000 -0.000000 0.000000 4.483761 -1.934271 7.129911 2.298026 0.133795 10.391350 1.689861 -4.451498 -14.175412 0.000000 -0.000000 0.000000 -1.101373 1.059541 7.016167 1.646155 -3.756802 4.996687 0.658729 -1.875061 3.534026 2.262404 1.462109 9.059227 3.154496 -1.555290 2.379574 -24.899975 1.917586 3.067637 -64.865840 -7.101166 9.155643 12.139473 -19.823558 4.473140 -1.148520 0.077460 -13.621049 23.165282 -0.489785 0.427191 64.355469 4.341927 11.547794 -15.464771 23.950471 0.716035 6.225880 -0.168304 -9.408255 
1.755278 0.745755 0.984710 -87.866703 3.896794 81.124647 2.171982 0.361069 8.386924 -2.888013 -14.697471 6.419375 4.088986 8.041541 -18.720966 0.000000 -0.000000 0.000000 4.599905 -1.902822 7.118400 2.308945 0.385556 10.333159 1.552733 -4.693237 -14.157424 0.000000 -0.000000 0.000000 -1.065031 1.000349 6.904447 1.651528 -3.670751 4.930449 0.682284 -1.893205 3.548388 2.416605 1.355642 8.851690 3.014849 -1.474848 2.444791 -25.320022 2.077977 3.340827 -64.412820 -6.266310 8.341367 12.154884 -16.211281 4.561027 -2.115106 0.191214 -12.095935 23.308731 -0.894229 0.597265 64.131012 3.699517 10.933534 -15.269587 21.958809 1.107036 7.069097 -0.528472 -8.964903 
1.755009 0.746032 0.984865 -87.622599 3.819183 80.750922 2.010479 0.429326 8.846552 -2.783690 -15.219742 6.370562 3.918403 8.275734 -18.618234 0.000000 -0.000000 0.000000 4.573493 -1.690387 7.691673 2.396924 0.470160 10.038473 1.545527 -5.190094 -14.112240 0.000000 -0.000000 0.000000 -1.048671 0.725128 7.584415 1.553504 -3.778862 4.652333 0.726596 -1.984314 3.470645 2.538557 1.137906 8.575313 2.874538 -1.391694 2.600102 -25.760926 2.104267 3.606897 -63.894844 -5.278290 7.455450 12.172986 -12.887484 4.538061 -2.650084 -0.051522 -11.081443 23.439510 -1.039092 0.634202 63.985336 3.047795 10.362884 -15.163354 20.132538 0.900757 6.931315 -0.067974 -8.567801 
1.755121 0.746577 0.984334 -88.097410 3.658613 81.077936 1.930199 0.454743 8.550131 -2.893209 -14.797467 6.276148 4.217939 8.493719 -18.571483 0.000000 -0.000000 0.000000 4.469745 -1.639158 7.021804 2.359958 0.814371 10.540742 1.408020 -5.058691 -14.213712 0.000000 -0.000000 0.000000 -1.091234 0.981059 6.959740 1.598384 -3.696239 4.793047 0.622510 -1.947831 3.658220 2.889667 0.898303 8.477422 2.659604 -1.541900 2.478605 -25.951113 3.477951 3.490990 -63.648414 -4.763327 6.849806 12.491856 -11.254674 5.513003 -4.470416 0.581752 -9.972797 23.285661 -1.825991 0.646614 64.244549 2.757728 10.030487 -15.448270 18.736304 1.237536 8.489972 -0.849408 -8.469167 
